<?xml version="1.0" encoding="utf-8"?>
<!-- Generator: Adobe Illustrator 24.0.2, SVG Export Plug-In . SVG Version: 6.00 Build 0)  -->
<svg version="1.1" xmlns="http://www.w3.org/2000/svg" xmlns:xlink="http://www.w3.org/1999/xlink" x="0px" y="0px"
	 viewBox="0 0 662 344" style="enable-background:new 0 0 662 344;" xml:space="preserve">
<style type="text/css">
	.st0{fill:none;stroke:#CDC6E9;stroke-dasharray:2;}
	.st1{fill-rule:evenodd;clip-rule:evenodd;fill:#CDC6E9;}
	.st2{opacity:0.291;fill-rule:evenodd;clip-rule:evenodd;fill:#FF5353;enable-background:new    ;}
	.st3{opacity:0.497;fill-rule:evenodd;clip-rule:evenodd;fill:#FF5353;enable-background:new    ;}
	.st4{fill:none;stroke:#3D3682;stroke-linecap:round;}
	.st5{fill-rule:evenodd;clip-rule:evenodd;fill:#A08CBF;}
	.st6{fill-rule:evenodd;clip-rule:evenodd;fill:#3D3682;}
	.st7{fill-rule:evenodd;clip-rule:evenodd;fill:#FAFAFA;}
	.st8{fill-rule:evenodd;clip-rule:evenodd;fill:#F2F2F2;}
	.st9{fill-rule:evenodd;clip-rule:evenodd;fill:#FCFBFB;}
	.st10{enable-background:new    ;}
	.st11{fill:#3D3682;}
	.st12{opacity:0.167;fill:none;stroke:#CDC6E9;enable-background:new    ;}
	.st13{fill:#CDC6E9;}
	.st14{fill:#FF5353;}
	.st15{fill:#FFFFFF;}
	.st16{fill-rule:evenodd;clip-rule:evenodd;fill:#FFFFFF;}
	.st17{filter:url(#a);}
	.st18{fill-rule:evenodd;clip-rule:evenodd;}
	.st19{fill:none;stroke:#CDC6E9;stroke-width:0.5;}
	.st20{fill-rule:evenodd;clip-rule:evenodd;fill:#F6F6F7;}
	.st21{fill-rule:evenodd;clip-rule:evenodd;fill:#7E6EC5;}
	.st22{fill-rule:evenodd;clip-rule:evenodd;fill:#54D985;}
	.st23{fill:none;stroke:#FFFFFF;}
	.st24{opacity:0.2;}
	.st25{fill-rule:evenodd;clip-rule:evenodd;fill:#F8F8F8;}
	.st26{opacity:0.4;}
	.st27{fill-rule:evenodd;clip-rule:evenodd;fill:#FF5353;}
</style>
<filter  filterUnits="objectBoundingBox" height="105.4%" id="a" width="102.9%" x="-1.4%" y="-1.4%">
	<feOffset  dx="0" dy="2" in="SourceAlpha" result="shadowOffsetOuter1"></feOffset>
	<feGaussianBlur  in="shadowOffsetOuter1" result="shadowBlurOuter1" stdDeviation="1"></feGaussianBlur>
	
		<feColorMatrix  in="shadowBlurOuter1" type="matrix" values="0 0 0 0 0.803921569 0 0 0 0 0.776470588 0 0 0 0 0.91372549 0 0 0 0.24646173 0">
		</feColorMatrix>
</filter>
<g id="Layer_1">
	<title>benifit-inventory-graphic</title>
	<path class="st0" d="M441,128h-15"/>
	<path class="st1" d="M425.8,124v8l-5.8-4L425.8,124z M441,124v8l5.8-4L441,124z"/>
	<path class="st0" d="M441,178h-15"/>
	<path class="st1" d="M425.8,174v8l-5.8-4L425.8,174z M441,174v8l5.8-4L441,174z"/>
	<g>
		<path class="st0" d="M441,234h-15"/>
		<path class="st1" d="M425.8,230v8l-5.8-4L425.8,230z M441,230v8l5.8-4L441,230z"/>
	</g>
	<g>
		<path class="st0" d="M441,285h-15"/>
		<path class="st1" d="M425.8,281v8l-5.8-4L425.8,281z M441,281v8l5.8-4L441,281z"/>
	</g>
	<g>
		<path class="st0" d="M512,128h-15"/>
		<path class="st1" d="M496.8,124v8l-5.8-4L496.8,124z M512,124v8l5.8-4L512,124z"/>
		<path class="st0" d="M512,178h-15"/>
		<path class="st1" d="M496.8,174v8l-5.8-4L496.8,174z M512,174v8l5.8-4L512,174z"/>
		<g>
			<path class="st0" d="M512,234h-15"/>
			<path class="st1" d="M496.8,230v8l-5.8-4L496.8,230z M512,230v8l5.8-4L512,230z"/>
		</g>
		<g>
			<path class="st0" d="M512,285h-15"/>
			<path class="st1" d="M496.8,281v8l-5.8-4L496.8,281z M512,281v8l5.8-4L512,281z"/>
		</g>
	</g>
	<g>
		<circle class="st2" cx="65.5" cy="59.5" r="3.5"/>
		<circle class="st2" cx="3.5" cy="160.5" r="3.5"/>
		<circle class="st3" cx="22.3" cy="241.3" r="2.3"/>
		<circle class="st3" cx="226.7" cy="149.3" r="2.3"/>
		<g>
			<path class="st4" d="M161,43v10 M156,48h10"/>
		</g>
		<g>
			<path class="st4" d="M95,1v10 M90,6h10"/>
		</g>
		<g>
			<path class="st5" d="M248.2,36h2v-7h-2V36z M248.2,51.5h2v-7h-2V51.5z M238,41.2h7v-2h-7V41.2z M253.5,41.2h7v-2h-7V41.2z
				 M245.5,42.5L247,44l-4.9,4.9l-1.4-1.4L245.5,42.5z M256.5,31.6l1.4,1.4l-4.9,5l-1.4-1.4L256.5,31.6z M251.5,44l1.4-1.4l5,4.9
				l-1.4,1.4L251.5,44z M240.6,33l1.4-1.4l4.9,4.9l-1.4,1.4L240.6,33z"/>
		</g>
		<g>
			<path class="st5" d="M12.1,48.9h1.4V44h-1.4V48.9z M12.1,59.6h1.4v-4.9h-1.4V59.6z M5,52.5h4.9v-1.4H5V52.5z M15.8,52.5h4.9v-1.4
				h-4.9L15.8,52.5z M10.2,53.4l1,1l-3.4,3.4l-1-1L10.2,53.4z M17.9,45.8l1,1l-3.4,3.4l-1-1L17.9,45.8z M14.4,54.4l1-1l3.4,3.4l-1,1
				L14.4,54.4z M6.8,46.8l1-1l3.4,3.4l-1,1L6.8,46.8z"/>
		</g>
		<g>
			<path class="st4" d="M269.4,136.8v7 M265.9,140.3h7"/>
		</g>
	</g>
	<g>
		<path class="st6" d="M391.8,84H62.1C56,84,51,89,51,95.1v195.2h351.9V95.1C402.9,89,397.9,84,391.8,84"/>
		<path class="st7" d="M51,289v42.9c0,6.1,5,11.1,11.1,11.1h329.7c6.1,0,11.1-5,11.1-11.1V289H51z"/>
		<path class="st8" d="M236,316.5c0,5.2-4.3,9.5-9.5,9.5s-9.5-4.3-9.5-9.5s4.3-9.5,9.5-9.5S236,311.3,236,316.5"/>
		<path class="st9" d="M399,98c0-5.5-4.9-10-10.8-10H65.8c-6,0-10.8,4.5-10.8,10v188h344V98z"/>
		<g class="st10">
			<path class="st11" d="M69.4,163.2l0.7-0.1c0,0.3,0.1,0.5,0.2,0.7s0.3,0.3,0.6,0.4s0.6,0.2,0.9,0.2c0.3,0,0.5,0,0.8-0.1
				s0.4-0.2,0.5-0.4s0.2-0.3,0.2-0.5c0-0.2-0.1-0.3-0.2-0.5s-0.3-0.2-0.5-0.3c-0.2-0.1-0.5-0.2-1-0.3s-0.9-0.2-1.1-0.4
				c-0.3-0.1-0.5-0.3-0.6-0.5s-0.2-0.5-0.2-0.7c0-0.3,0.1-0.6,0.2-0.8s0.4-0.4,0.7-0.6s0.7-0.2,1.1-0.2c0.4,0,0.8,0.1,1.1,0.2
				s0.6,0.3,0.7,0.6s0.3,0.6,0.3,0.9l-0.7,0.1c0-0.4-0.2-0.6-0.4-0.8s-0.6-0.3-1-0.3c-0.5,0-0.8,0.1-1,0.3s-0.3,0.4-0.3,0.6
				c0,0.2,0.1,0.4,0.2,0.5c0.1,0.1,0.5,0.3,1.1,0.4s1,0.3,1.3,0.4c0.3,0.2,0.6,0.3,0.7,0.6s0.2,0.5,0.2,0.8c0,0.3-0.1,0.6-0.3,0.9
				s-0.4,0.5-0.8,0.6s-0.7,0.2-1.1,0.2c-0.5,0-1-0.1-1.3-0.2s-0.6-0.4-0.8-0.7S69.4,163.5,69.4,163.2z"/>
			<path class="st11" d="M77.6,164.5c-0.3,0.2-0.5,0.4-0.8,0.5s-0.5,0.1-0.8,0.1c-0.5,0-0.8-0.1-1.1-0.3s-0.4-0.5-0.4-0.9
				c0-0.2,0-0.4,0.1-0.6s0.2-0.3,0.4-0.4s0.3-0.2,0.5-0.2c0.1,0,0.3-0.1,0.6-0.1c0.6-0.1,1-0.1,1.3-0.2c0-0.1,0-0.2,0-0.2
				c0-0.3-0.1-0.5-0.2-0.6c-0.2-0.2-0.4-0.2-0.8-0.2c-0.3,0-0.6,0.1-0.7,0.2s-0.3,0.3-0.3,0.6l-0.7-0.1c0.1-0.3,0.2-0.5,0.3-0.7
				s0.4-0.3,0.6-0.4s0.6-0.1,0.9-0.1c0.4,0,0.6,0,0.9,0.1s0.4,0.2,0.5,0.3s0.2,0.3,0.2,0.5c0,0.1,0,0.3,0,0.6v0.9c0,0.7,0,1.1,0,1.2
				s0.1,0.3,0.2,0.5h-0.7C77.6,164.9,77.6,164.7,77.6,164.5z M77.5,162.9c-0.3,0.1-0.6,0.2-1.1,0.3c-0.3,0-0.5,0.1-0.6,0.1
				s-0.2,0.1-0.3,0.2s-0.1,0.2-0.1,0.3c0,0.2,0.1,0.3,0.2,0.5s0.3,0.2,0.6,0.2c0.3,0,0.5-0.1,0.7-0.2s0.4-0.3,0.5-0.5
				c0.1-0.2,0.1-0.4,0.1-0.7V162.9z"/>
			<path class="st11" d="M79.3,165v-5.7H80v5.7H79.3z"/>
			<path class="st11" d="M83.9,163.7l0.7,0.1c-0.1,0.4-0.3,0.8-0.6,1s-0.7,0.4-1.2,0.4c-0.6,0-1.1-0.2-1.4-0.6s-0.5-0.9-0.5-1.6
				c0-0.7,0.2-1.2,0.5-1.6s0.8-0.6,1.4-0.6c0.6,0,1,0.2,1.4,0.6s0.5,0.9,0.5,1.6c0,0,0,0.1,0,0.2h-3.1c0,0.5,0.2,0.8,0.4,1
				s0.5,0.4,0.9,0.4c0.3,0,0.5-0.1,0.7-0.2S83.8,164,83.9,163.7z M81.6,162.5h2.3c0-0.3-0.1-0.6-0.3-0.8c-0.2-0.3-0.5-0.4-0.9-0.4
				c-0.3,0-0.6,0.1-0.8,0.3S81.6,162.2,81.6,162.5z"/>
			<path class="st11" d="M88.2,164.5c-0.3,0.2-0.5,0.4-0.8,0.5s-0.5,0.1-0.8,0.1c-0.5,0-0.8-0.1-1.1-0.3s-0.4-0.5-0.4-0.9
				c0-0.2,0-0.4,0.1-0.6s0.2-0.3,0.4-0.4s0.3-0.2,0.5-0.2c0.1,0,0.3-0.1,0.6-0.1c0.6-0.1,1-0.1,1.3-0.2c0-0.1,0-0.2,0-0.2
				c0-0.3-0.1-0.5-0.2-0.6c-0.2-0.2-0.4-0.2-0.8-0.2c-0.3,0-0.6,0.1-0.7,0.2s-0.3,0.3-0.3,0.6l-0.7-0.1c0.1-0.3,0.2-0.5,0.3-0.7
				s0.4-0.3,0.6-0.4s0.6-0.1,0.9-0.1c0.4,0,0.6,0,0.9,0.1s0.4,0.2,0.5,0.3s0.2,0.3,0.2,0.5c0,0.1,0,0.3,0,0.6v0.9c0,0.7,0,1.1,0,1.2
				s0.1,0.3,0.2,0.5h-0.7C88.3,164.9,88.3,164.7,88.2,164.5z M88.2,162.9c-0.3,0.1-0.6,0.2-1.1,0.3c-0.3,0-0.5,0.1-0.6,0.1
				s-0.2,0.1-0.3,0.2s-0.1,0.2-0.1,0.3c0,0.2,0.1,0.3,0.2,0.5s0.3,0.2,0.6,0.2c0.3,0,0.5-0.1,0.7-0.2s0.4-0.3,0.5-0.5
				c0.1-0.2,0.1-0.4,0.1-0.7V162.9z"/>
			<path class="st11" d="M90.6,165H90v-5.7h0.7v2c0.3-0.4,0.7-0.6,1.1-0.6c0.3,0,0.5,0.1,0.7,0.2s0.4,0.2,0.6,0.4s0.3,0.4,0.3,0.7
				s0.1,0.5,0.1,0.8c0,0.7-0.2,1.3-0.5,1.6s-0.8,0.6-1.3,0.6c-0.5,0-0.9-0.2-1.2-0.6V165z M90.6,162.9c0,0.5,0.1,0.9,0.2,1.1
				c0.2,0.4,0.5,0.5,0.9,0.5c0.3,0,0.6-0.1,0.8-0.4s0.3-0.7,0.3-1.2c0-0.5-0.1-0.9-0.3-1.2s-0.5-0.4-0.8-0.4c-0.3,0-0.6,0.1-0.8,0.4
				S90.6,162.4,90.6,162.9z"/>
			<path class="st11" d="M94.4,165v-5.7h0.7v5.7H94.4z"/>
			<path class="st11" d="M99.1,163.7l0.7,0.1c-0.1,0.4-0.3,0.8-0.6,1s-0.7,0.4-1.2,0.4c-0.6,0-1.1-0.2-1.4-0.6S96,163.6,96,163
				c0-0.7,0.2-1.2,0.5-1.6s0.8-0.6,1.4-0.6c0.6,0,1,0.2,1.4,0.6s0.5,0.9,0.5,1.6c0,0,0,0.1,0,0.2h-3.1c0,0.5,0.2,0.8,0.4,1
				s0.5,0.4,0.9,0.4c0.3,0,0.5-0.1,0.7-0.2S98.9,164,99.1,163.7z M96.7,162.5h2.3c0-0.3-0.1-0.6-0.3-0.8c-0.2-0.3-0.5-0.4-0.9-0.4
				c-0.3,0-0.6,0.1-0.8,0.3S96.8,162.2,96.7,162.5z"/>
			<path class="st11" d="M102.7,163.2l0.7-0.1c0,0.3,0.1,0.5,0.2,0.7s0.3,0.3,0.6,0.4s0.6,0.2,0.9,0.2c0.3,0,0.5,0,0.8-0.1
				s0.4-0.2,0.5-0.4s0.2-0.3,0.2-0.5c0-0.2-0.1-0.3-0.2-0.5s-0.3-0.2-0.5-0.3c-0.2-0.1-0.5-0.2-1-0.3s-0.9-0.2-1.1-0.4
				c-0.3-0.1-0.5-0.3-0.6-0.5s-0.2-0.5-0.2-0.7c0-0.3,0.1-0.6,0.2-0.8s0.4-0.4,0.7-0.6s0.7-0.2,1.1-0.2c0.4,0,0.8,0.1,1.1,0.2
				s0.6,0.3,0.7,0.6s0.3,0.6,0.3,0.9l-0.7,0.1c0-0.4-0.2-0.6-0.4-0.8s-0.6-0.3-1-0.3c-0.5,0-0.8,0.1-1,0.3s-0.3,0.4-0.3,0.6
				c0,0.2,0.1,0.4,0.2,0.5c0.1,0.1,0.5,0.3,1.1,0.4s1,0.3,1.3,0.4c0.3,0.2,0.6,0.3,0.7,0.6s0.2,0.5,0.2,0.8c0,0.3-0.1,0.6-0.3,0.9
				s-0.4,0.5-0.8,0.6s-0.7,0.2-1.1,0.2c-0.5,0-1-0.1-1.3-0.2s-0.6-0.4-0.8-0.7S102.7,163.5,102.7,163.2z"/>
			<path class="st11" d="M109.8,164.4l0.1,0.6c-0.2,0-0.4,0.1-0.5,0.1c-0.3,0-0.5,0-0.6-0.1s-0.2-0.2-0.3-0.3s-0.1-0.4-0.1-0.8v-2.4
				h-0.5v-0.5h0.5v-1l0.7-0.4v1.4h0.7v0.5h-0.7v2.4c0,0.2,0,0.3,0,0.4s0.1,0.1,0.1,0.1s0.1,0.1,0.2,0.1
				C109.5,164.4,109.6,164.4,109.8,164.4z"/>
			<path class="st11" d="M110.2,162.9c0-0.8,0.2-1.3,0.6-1.7c0.4-0.3,0.8-0.5,1.3-0.5c0.6,0,1,0.2,1.4,0.6s0.5,0.9,0.5,1.5
				c0,0.5-0.1,1-0.2,1.3s-0.4,0.5-0.7,0.7s-0.6,0.3-1,0.3c-0.6,0-1.1-0.2-1.4-0.6S110.2,163.6,110.2,162.9z M110.9,162.9
				c0,0.5,0.1,0.9,0.3,1.2s0.5,0.4,0.9,0.4c0.3,0,0.6-0.1,0.9-0.4s0.3-0.7,0.3-1.2c0-0.5-0.1-0.9-0.3-1.2s-0.5-0.4-0.9-0.4
				c-0.4,0-0.6,0.1-0.9,0.4S110.9,162.4,110.9,162.9z"/>
			<path class="st11" d="M117.6,163.5l0.7,0.1c-0.1,0.5-0.3,0.8-0.6,1.1s-0.7,0.4-1.1,0.4c-0.6,0-1-0.2-1.4-0.6s-0.5-0.9-0.5-1.6
				c0-0.4,0.1-0.8,0.2-1.2s0.4-0.6,0.7-0.8s0.6-0.3,1-0.3c0.5,0,0.8,0.1,1.1,0.3s0.5,0.6,0.6,1l-0.7,0.1c-0.1-0.3-0.2-0.5-0.3-0.6
				s-0.4-0.2-0.6-0.2c-0.4,0-0.6,0.1-0.9,0.4s-0.3,0.7-0.3,1.2c0,0.6,0.1,1,0.3,1.2s0.5,0.4,0.8,0.4c0.3,0,0.5-0.1,0.7-0.3
				S117.6,163.8,117.6,163.5z"/>
			<path class="st11" d="M118.9,165v-5.7h0.7v3.3l1.7-1.7h0.9l-1.6,1.5l1.7,2.6h-0.9l-1.4-2.1l-0.5,0.5v1.6H118.9z"/>
		</g>
		<path class="st12" d="M69,175h45 M69,222h45"/>
		<g class="st10">
			<path class="st13" d="M69.4,210.2l0.7-0.1c0,0.3,0.1,0.5,0.2,0.7s0.3,0.3,0.6,0.4s0.6,0.2,0.9,0.2c0.3,0,0.5,0,0.8-0.1
				s0.4-0.2,0.5-0.4s0.2-0.3,0.2-0.5c0-0.2-0.1-0.3-0.2-0.5s-0.3-0.2-0.5-0.3c-0.2-0.1-0.5-0.2-1-0.3s-0.9-0.2-1.1-0.4
				c-0.3-0.1-0.5-0.3-0.6-0.5s-0.2-0.5-0.2-0.7c0-0.3,0.1-0.6,0.2-0.8s0.4-0.4,0.7-0.6s0.7-0.2,1.1-0.2c0.4,0,0.8,0.1,1.1,0.2
				s0.6,0.3,0.7,0.6s0.3,0.6,0.3,0.9l-0.7,0.1c0-0.4-0.2-0.6-0.4-0.8s-0.6-0.3-1-0.3c-0.5,0-0.8,0.1-1,0.3s-0.3,0.4-0.3,0.6
				c0,0.2,0.1,0.4,0.2,0.5c0.1,0.1,0.5,0.3,1.1,0.4s1,0.3,1.3,0.4c0.3,0.2,0.6,0.3,0.7,0.6s0.2,0.5,0.2,0.8c0,0.3-0.1,0.6-0.3,0.9
				s-0.4,0.5-0.8,0.6s-0.7,0.2-1.1,0.2c-0.5,0-1-0.1-1.3-0.2s-0.6-0.4-0.8-0.7S69.4,210.5,69.4,210.2z"/>
			<path class="st13" d="M74.6,209.9c0-0.8,0.2-1.3,0.6-1.7c0.4-0.3,0.8-0.5,1.3-0.5c0.6,0,1,0.2,1.4,0.6s0.5,0.9,0.5,1.5
				c0,0.5-0.1,1-0.2,1.3s-0.4,0.5-0.7,0.7s-0.6,0.3-1,0.3c-0.6,0-1.1-0.2-1.4-0.6S74.6,210.6,74.6,209.9z M75.3,209.9
				c0,0.5,0.1,0.9,0.3,1.2s0.5,0.4,0.9,0.4c0.3,0,0.6-0.1,0.9-0.4s0.3-0.7,0.3-1.2c0-0.5-0.1-0.9-0.3-1.2s-0.5-0.4-0.9-0.4
				c-0.4,0-0.6,0.1-0.9,0.4S75.3,209.4,75.3,209.9z"/>
			<path class="st13" d="M79.3,212v-5.7H80v5.7H79.3z"/>
			<path class="st13" d="M83.8,212v-0.5c-0.3,0.4-0.6,0.6-1.2,0.6c-0.3,0-0.6-0.1-0.9-0.3s-0.5-0.4-0.6-0.8s-0.2-0.7-0.2-1.1
				c0-0.4,0.1-0.8,0.2-1.1s0.3-0.6,0.6-0.8s0.6-0.3,0.9-0.3c0.3,0,0.5,0.1,0.7,0.2s0.4,0.2,0.5,0.4v-2.1h0.7v5.7H83.8z M81.6,209.9
				c0,0.5,0.1,0.9,0.3,1.2s0.5,0.4,0.8,0.4c0.3,0,0.6-0.1,0.8-0.4s0.3-0.6,0.3-1.2c0-0.6-0.1-1-0.3-1.3s-0.5-0.4-0.8-0.4
				c-0.3,0-0.6,0.1-0.8,0.4S81.6,209.4,81.6,209.9z"/>
			<path class="st13" d="M87.6,210.2l0.7-0.1c0,0.3,0.1,0.5,0.2,0.7s0.3,0.3,0.6,0.4s0.6,0.2,0.9,0.2c0.3,0,0.5,0,0.8-0.1
				s0.4-0.2,0.5-0.4s0.2-0.3,0.2-0.5c0-0.2-0.1-0.3-0.2-0.5s-0.3-0.2-0.5-0.3c-0.2-0.1-0.5-0.2-1-0.3s-0.9-0.2-1.1-0.4
				c-0.3-0.1-0.5-0.3-0.6-0.5s-0.2-0.5-0.2-0.7c0-0.3,0.1-0.6,0.2-0.8s0.4-0.4,0.7-0.6s0.7-0.2,1.1-0.2c0.4,0,0.8,0.1,1.1,0.2
				s0.6,0.3,0.7,0.6s0.3,0.6,0.3,0.9l-0.7,0.1c0-0.4-0.2-0.6-0.4-0.8s-0.6-0.3-1-0.3c-0.5,0-0.8,0.1-1,0.3s-0.3,0.4-0.3,0.6
				c0,0.2,0.1,0.4,0.2,0.5c0.1,0.1,0.5,0.3,1.1,0.4s1,0.3,1.3,0.4c0.3,0.2,0.6,0.3,0.7,0.6s0.2,0.5,0.2,0.8c0,0.3-0.1,0.6-0.3,0.9
				s-0.4,0.5-0.8,0.6s-0.7,0.2-1.1,0.2c-0.5,0-1-0.1-1.3-0.2s-0.6-0.4-0.8-0.7S87.6,210.5,87.6,210.2z"/>
			<path class="st13" d="M94.6,211.4l0.1,0.6c-0.2,0-0.4,0.1-0.5,0.1c-0.3,0-0.5,0-0.6-0.1s-0.2-0.2-0.3-0.3s-0.1-0.4-0.1-0.8v-2.4
				h-0.5v-0.5h0.5v-1l0.7-0.4v1.4h0.7v0.5h-0.7v2.4c0,0.2,0,0.3,0,0.4s0.1,0.1,0.1,0.1s0.1,0.1,0.2,0.1
				C94.4,211.4,94.5,211.4,94.6,211.4z"/>
			<path class="st13" d="M95.1,209.9c0-0.8,0.2-1.3,0.6-1.7c0.4-0.3,0.8-0.5,1.3-0.5c0.6,0,1,0.2,1.4,0.6s0.5,0.9,0.5,1.5
				c0,0.5-0.1,1-0.2,1.3s-0.4,0.5-0.7,0.7s-0.6,0.3-1,0.3c-0.6,0-1.1-0.2-1.4-0.6S95.1,210.6,95.1,209.9z M95.8,209.9
				c0,0.5,0.1,0.9,0.3,1.2s0.5,0.4,0.9,0.4c0.3,0,0.6-0.1,0.9-0.4s0.3-0.7,0.3-1.2c0-0.5-0.1-0.9-0.3-1.2s-0.5-0.4-0.9-0.4
				c-0.4,0-0.6,0.1-0.9,0.4S95.8,209.4,95.8,209.9z"/>
			<path class="st13" d="M102.5,210.5l0.7,0.1c-0.1,0.5-0.3,0.8-0.6,1.1s-0.7,0.4-1.1,0.4c-0.6,0-1-0.2-1.4-0.6s-0.5-0.9-0.5-1.6
				c0-0.4,0.1-0.8,0.2-1.2s0.4-0.6,0.7-0.8s0.6-0.3,1-0.3c0.5,0,0.8,0.1,1.1,0.3s0.5,0.6,0.6,1l-0.7,0.1c-0.1-0.3-0.2-0.5-0.3-0.6
				s-0.4-0.2-0.6-0.2c-0.4,0-0.6,0.1-0.9,0.4s-0.3,0.7-0.3,1.2c0,0.6,0.1,1,0.3,1.2s0.5,0.4,0.8,0.4c0.3,0,0.5-0.1,0.7-0.3
				S102.4,210.8,102.5,210.5z"/>
			<path class="st13" d="M103.8,212v-5.7h0.7v3.3l1.7-1.7h0.9l-1.6,1.5l1.7,2.6h-0.9l-1.4-2.1l-0.5,0.5v1.6H103.8z"/>
		</g>
		<g class="st10">
			<path class="st13" d="M69.6,257v-5.7h0.8v2.4h3v-2.4h0.8v5.7h-0.8v-2.7h-3v2.7H69.6z"/>
			<path class="st13" d="M75,254.9c0-0.8,0.2-1.3,0.6-1.7c0.4-0.3,0.8-0.5,1.3-0.5c0.6,0,1,0.2,1.4,0.6s0.5,0.9,0.5,1.5
				c0,0.5-0.1,1-0.2,1.3s-0.4,0.5-0.7,0.7s-0.6,0.3-1,0.3c-0.6,0-1.1-0.2-1.4-0.6S75,255.6,75,254.9z M75.8,254.9
				c0,0.5,0.1,0.9,0.3,1.2s0.5,0.4,0.9,0.4c0.3,0,0.6-0.1,0.9-0.4s0.3-0.7,0.3-1.2c0-0.5-0.1-0.9-0.3-1.2s-0.5-0.4-0.9-0.4
				c-0.4,0-0.6,0.1-0.9,0.4S75.8,254.4,75.8,254.9z"/>
			<path class="st13" d="M79.7,257v-5.7h0.7v5.7H79.7z"/>
			<path class="st13" d="M84.2,257v-0.5c-0.3,0.4-0.6,0.6-1.2,0.6c-0.3,0-0.6-0.1-0.9-0.3s-0.5-0.4-0.6-0.8s-0.2-0.7-0.2-1.1
				c0-0.4,0.1-0.8,0.2-1.1s0.3-0.6,0.6-0.8s0.6-0.3,0.9-0.3c0.3,0,0.5,0.1,0.7,0.2s0.4,0.2,0.5,0.4v-2.1h0.7v5.7H84.2z M82,254.9
				c0,0.5,0.1,0.9,0.3,1.2s0.5,0.4,0.8,0.4c0.3,0,0.6-0.1,0.8-0.4s0.3-0.6,0.3-1.2c0-0.6-0.1-1-0.3-1.3s-0.5-0.4-0.8-0.4
				c-0.3,0-0.6,0.1-0.8,0.4S82,254.4,82,254.9z"/>
		</g>
		<g class="st10">
			<path class="st14" d="M65.8,151.5l1.3-0.1c0.1,0.6,0.3,1,0.6,1.3s0.7,0.4,1.2,0.4c0.4,0,0.8-0.1,1.1-0.3c0.3-0.2,0.6-0.4,0.8-0.7
				c0.2-0.3,0.4-0.7,0.5-1.3s0.2-1.1,0.2-1.6c0-0.1,0-0.1,0-0.3c-0.3,0.4-0.6,0.8-1.1,1c-0.5,0.3-1,0.4-1.5,0.4
				c-0.9,0-1.6-0.3-2.3-1s-0.9-1.5-0.9-2.5c0-1.1,0.3-2,1-2.6c0.6-0.7,1.4-1,2.4-1c0.7,0,1.3,0.2,1.9,0.6c0.6,0.4,1,0.9,1.3,1.6
				c0.3,0.7,0.5,1.7,0.5,3c0,1.4-0.1,2.5-0.4,3.3c-0.3,0.8-0.7,1.4-1.3,1.9c-0.6,0.4-1.3,0.6-2.1,0.6c-0.8,0-1.5-0.2-2.1-0.7
				C66.2,153,65.9,152.4,65.8,151.5z M71.2,146.8c0-0.8-0.2-1.4-0.6-1.8c-0.4-0.4-0.9-0.7-1.5-0.7c-0.6,0-1.1,0.2-1.5,0.7
				c-0.4,0.5-0.7,1.1-0.7,1.9c0,0.7,0.2,1.2,0.6,1.7c0.4,0.4,0.9,0.6,1.5,0.6c0.6,0,1.1-0.2,1.5-0.6C71,148.1,71.2,147.5,71.2,146.8
				z"/>
			<path class="st14" d="M78.9,154h-1.3v-8.4c-0.3,0.3-0.7,0.6-1.2,0.9c-0.5,0.3-1,0.5-1.4,0.7v-1.3c0.7-0.3,1.4-0.8,1.9-1.3
				s0.9-1,1.2-1.4h0.8V154z"/>
		</g>
		<g class="st10">
			<path class="st13" d="M74.6,199h-1.3v-8.4c-0.3,0.3-0.7,0.6-1.2,0.9c-0.5,0.3-1,0.5-1.4,0.7v-1.3c0.7-0.3,1.4-0.8,1.9-1.3
				s0.9-1,1.2-1.4h0.8V199z"/>
			<path class="st13" d="M78,193.7c0-1.3,0.1-2.3,0.4-3.1c0.3-0.8,0.6-1.4,1.2-1.8s1.2-0.6,1.9-0.6c0.6,0,1.1,0.1,1.5,0.3
				c0.4,0.2,0.8,0.6,1.1,1c0.3,0.4,0.5,1,0.7,1.6c0.2,0.6,0.2,1.5,0.2,2.5c0,1.3-0.1,2.3-0.4,3c-0.3,0.8-0.6,1.4-1.2,1.8
				c-0.5,0.4-1.2,0.6-2,0.6c-1,0-1.8-0.4-2.4-1.1C78.3,197.2,78,195.7,78,193.7z M79.3,193.7c0,1.8,0.2,2.9,0.6,3.5
				c0.4,0.6,0.9,0.9,1.5,0.9s1.1-0.3,1.5-0.9s0.6-1.8,0.6-3.5c0-1.8-0.2-2.9-0.6-3.5s-0.9-0.9-1.5-0.9c-0.6,0-1.1,0.3-1.5,0.8
				C79.5,190.7,79.3,191.9,79.3,193.7z"/>
			<path class="st13" d="M86.5,196.5l1.3-0.1c0.1,0.6,0.3,1,0.6,1.3s0.7,0.4,1.2,0.4c0.4,0,0.8-0.1,1.1-0.3c0.3-0.2,0.6-0.4,0.8-0.7
				c0.2-0.3,0.4-0.7,0.5-1.3s0.2-1.1,0.2-1.6c0-0.1,0-0.1,0-0.3c-0.3,0.4-0.6,0.8-1.1,1c-0.5,0.3-1,0.4-1.5,0.4
				c-0.9,0-1.6-0.3-2.3-1s-0.9-1.5-0.9-2.5c0-1.1,0.3-2,1-2.6c0.6-0.7,1.4-1,2.4-1c0.7,0,1.3,0.2,1.9,0.6c0.6,0.4,1,0.9,1.3,1.6
				c0.3,0.7,0.5,1.7,0.5,3c0,1.4-0.1,2.5-0.4,3.3c-0.3,0.8-0.7,1.4-1.3,1.9c-0.6,0.4-1.3,0.6-2.1,0.6c-0.8,0-1.5-0.2-2.1-0.7
				C86.9,198,86.6,197.4,86.5,196.5z M91.9,191.8c0-0.8-0.2-1.4-0.6-1.8c-0.4-0.4-0.9-0.7-1.5-0.7c-0.6,0-1.1,0.2-1.5,0.7
				c-0.4,0.5-0.7,1.1-0.7,1.9c0,0.7,0.2,1.2,0.6,1.7c0.4,0.4,0.9,0.6,1.5,0.6c0.6,0,1.1-0.2,1.5-0.6
				C91.7,193.1,91.9,192.5,91.9,191.8z"/>
		</g>
		<g class="st10">
			<path class="st13" d="M76.6,242.7v1.3h-7.1c0-0.3,0-0.6,0.2-0.9c0.2-0.5,0.5-1,0.9-1.4s1-1,1.7-1.6c1.2-1,2-1.7,2.4-2.3
				c0.4-0.6,0.6-1.1,0.6-1.6c0-0.5-0.2-1-0.6-1.3c-0.4-0.4-0.9-0.5-1.5-0.5c-0.6,0-1.1,0.2-1.5,0.6s-0.6,0.9-0.6,1.6l-1.4-0.1
				c0.1-1,0.4-1.8,1-2.3c0.6-0.5,1.4-0.8,2.4-0.8c1,0,1.8,0.3,2.4,0.9c0.6,0.6,0.9,1.3,0.9,2.1c0,0.4-0.1,0.9-0.3,1.3
				s-0.5,0.9-0.9,1.3c-0.4,0.5-1.1,1.1-2,1.9c-0.8,0.7-1.3,1.1-1.5,1.4c-0.2,0.2-0.4,0.5-0.6,0.7H76.6z"/>
		</g>
		<path class="st1" d="M399,98c0-5.5-4.9-10-10.8-10H65.8c-6,0-10.8,4.5-10.8,10v14h344V98z"/>
		<g class="st10">
			<path class="st15" d="M87,101.6l0.8-0.1c0.1,0.3,0.2,0.5,0.3,0.6s0.4,0.2,0.6,0.2c0.3,0,0.5-0.1,0.6-0.2c0.1-0.1,0.2-0.3,0.2-0.4
				c0-0.1,0-0.2-0.1-0.3c-0.1-0.1-0.2-0.1-0.3-0.2c-0.1,0-0.3-0.1-0.7-0.2c-0.5-0.1-0.8-0.3-1-0.4c-0.3-0.2-0.4-0.5-0.4-0.9
				c0-0.2,0.1-0.4,0.2-0.6c0.1-0.2,0.3-0.3,0.5-0.4s0.5-0.1,0.8-0.1c0.5,0,0.9,0.1,1.2,0.4s0.4,0.6,0.4,0.9l-0.9,0
				c0-0.2-0.1-0.4-0.2-0.5c-0.1-0.1-0.3-0.1-0.5-0.1c-0.3,0-0.4,0.1-0.6,0.2c-0.1,0.1-0.1,0.2-0.1,0.3c0,0.1,0,0.2,0.1,0.3
				c0.1,0.1,0.4,0.2,0.8,0.3s0.7,0.2,0.9,0.3s0.4,0.3,0.5,0.4c0.1,0.2,0.2,0.4,0.2,0.7c0,0.2-0.1,0.5-0.2,0.7s-0.3,0.4-0.6,0.5
				c-0.3,0.1-0.6,0.2-0.9,0.2c-0.5,0-1-0.1-1.3-0.4C87.3,102.4,87.1,102.1,87,101.6z"/>
			<path class="st15" d="M92.7,99.9v0.7h-0.6v1.3c0,0.3,0,0.4,0,0.4c0,0,0,0.1,0.1,0.1s0.1,0,0.1,0c0.1,0,0.2,0,0.3-0.1l0.1,0.6
				c-0.2,0.1-0.4,0.1-0.7,0.1c-0.1,0-0.3,0-0.4-0.1c-0.1-0.1-0.2-0.1-0.3-0.2c-0.1-0.1-0.1-0.2-0.1-0.3c0-0.1,0-0.3,0-0.6v-1.4h-0.4
				v-0.7h0.4v-0.6l0.8-0.5v1.1H92.7z"/>
			<path class="st15" d="M93.1,101.4c0-0.3,0.1-0.5,0.2-0.8s0.3-0.5,0.6-0.6s0.5-0.2,0.8-0.2c0.5,0,0.9,0.2,1.2,0.5s0.5,0.7,0.5,1.2
				c0,0.5-0.2,0.9-0.5,1.2c-0.3,0.3-0.7,0.5-1.1,0.5c-0.3,0-0.6-0.1-0.8-0.2s-0.5-0.3-0.6-0.6C93.1,102.1,93.1,101.8,93.1,101.4z
				 M93.9,101.4c0,0.3,0.1,0.5,0.2,0.7s0.3,0.2,0.5,0.2s0.4-0.1,0.5-0.2s0.2-0.4,0.2-0.7c0-0.3-0.1-0.5-0.2-0.7s-0.3-0.2-0.5-0.2
				s-0.4,0.1-0.5,0.2S93.9,101.1,93.9,101.4z"/>
			<path class="st15" d="M99.6,100.8l-0.8,0.1c0-0.2-0.1-0.3-0.2-0.4s-0.2-0.1-0.4-0.1c-0.2,0-0.4,0.1-0.5,0.2
				c-0.1,0.1-0.2,0.4-0.2,0.7c0,0.4,0.1,0.6,0.2,0.8s0.3,0.2,0.5,0.2c0.2,0,0.3,0,0.4-0.1c0.1-0.1,0.2-0.2,0.2-0.5l0.8,0.1
				c-0.1,0.4-0.2,0.7-0.5,0.8s-0.6,0.3-1,0.3c-0.5,0-0.8-0.1-1.1-0.4s-0.4-0.7-0.4-1.2c0-0.5,0.1-0.9,0.4-1.2s0.6-0.4,1.1-0.4
				c0.4,0,0.7,0.1,0.9,0.2C99.4,100.2,99.5,100.5,99.6,100.8z"/>
			<path class="st15" d="M100.2,103v-4.3h0.8v2.3l1-1.1h1L102,101l1.1,2h-0.9l-0.8-1.4l-0.4,0.4v1H100.2z"/>
			<path class="st15" d="M109.1,102.5l-0.5,0.6c-0.2-0.1-0.5-0.3-0.7-0.5c-0.2,0.2-0.4,0.3-0.6,0.3s-0.4,0.1-0.7,0.1
				c-0.5,0-0.9-0.2-1.2-0.5c-0.2-0.2-0.3-0.5-0.3-0.8c0-0.3,0.1-0.5,0.2-0.7c0.2-0.2,0.4-0.4,0.7-0.6c-0.1-0.2-0.3-0.3-0.3-0.5
				c-0.1-0.2-0.1-0.3-0.1-0.4c0-0.3,0.1-0.5,0.3-0.7c0.2-0.2,0.5-0.3,0.9-0.3c0.4,0,0.7,0.1,0.9,0.3s0.3,0.4,0.3,0.7
				c0,0.2-0.1,0.3-0.2,0.5s-0.3,0.3-0.6,0.5l0.6,0.8c0.1-0.1,0.1-0.3,0.2-0.5l0.7,0.2c-0.1,0.3-0.1,0.5-0.2,0.6s-0.1,0.2-0.2,0.3
				c0.1,0.1,0.2,0.2,0.4,0.3C108.9,102.4,109,102.4,109.1,102.5z M106.5,101c-0.2,0.1-0.3,0.2-0.4,0.3s-0.1,0.3-0.1,0.4
				c0,0.2,0.1,0.3,0.2,0.4s0.3,0.2,0.5,0.2c0.1,0,0.3,0,0.4-0.1s0.2-0.1,0.4-0.3L106.5,101z M106.8,100.1l0.2-0.2
				c0.2-0.1,0.2-0.3,0.2-0.4c0-0.1,0-0.2-0.1-0.3s-0.2-0.1-0.3-0.1c-0.1,0-0.2,0-0.3,0.1s-0.1,0.1-0.1,0.2c0,0.1,0.1,0.2,0.2,0.4
				L106.8,100.1z"/>
			<path class="st15" d="M111.2,103v-4.3h0.9v4.3H111.2z"/>
			<path class="st15" d="M115.8,103h-0.8v-1.6c0-0.3,0-0.6-0.1-0.7c0-0.1-0.1-0.2-0.2-0.2s-0.2-0.1-0.3-0.1c-0.1,0-0.3,0-0.4,0.1
				s-0.2,0.2-0.2,0.3s-0.1,0.4-0.1,0.7v1.4h-0.8v-3.1h0.8v0.5c0.3-0.4,0.6-0.5,1-0.5c0.2,0,0.3,0,0.5,0.1c0.2,0.1,0.3,0.1,0.3,0.3
				s0.1,0.2,0.2,0.3s0,0.3,0,0.6V103z"/>
			<path class="st15" d="M117.5,103l-1.3-3.1h0.9l0.6,1.6l0.2,0.5c0-0.1,0.1-0.2,0.1-0.3c0-0.1,0.1-0.2,0.1-0.3l0.6-1.6h0.8
				l-1.2,3.1H117.5z"/>
			<path class="st15" d="M121.7,102l0.8,0.1c-0.1,0.3-0.3,0.5-0.5,0.7c-0.2,0.2-0.5,0.2-0.9,0.2c-0.5,0-0.9-0.2-1.2-0.5
				c-0.2-0.3-0.3-0.6-0.3-1.1c0-0.5,0.1-0.9,0.4-1.2c0.3-0.3,0.6-0.4,1-0.4c0.5,0,0.8,0.2,1.1,0.5s0.4,0.8,0.4,1.4h-2.1
				c0,0.2,0.1,0.4,0.2,0.6s0.3,0.2,0.5,0.2c0.1,0,0.2,0,0.3-0.1S121.7,102.2,121.7,102z M121.8,101.2c0-0.2-0.1-0.4-0.2-0.5
				s-0.3-0.2-0.4-0.2c-0.2,0-0.3,0.1-0.4,0.2s-0.2,0.3-0.2,0.5H121.8z"/>
			<path class="st15" d="M126.1,103h-0.8v-1.6c0-0.3,0-0.6-0.1-0.7c0-0.1-0.1-0.2-0.2-0.2s-0.2-0.1-0.3-0.1c-0.1,0-0.3,0-0.4,0.1
				s-0.2,0.2-0.2,0.3s-0.1,0.4-0.1,0.7v1.4h-0.8v-3.1h0.8v0.5c0.3-0.4,0.6-0.5,1-0.5c0.2,0,0.3,0,0.5,0.1c0.2,0.1,0.3,0.1,0.3,0.3
				s0.1,0.2,0.2,0.3s0,0.3,0,0.6V103z"/>
			<path class="st15" d="M128.4,99.9v0.7h-0.6v1.3c0,0.3,0,0.4,0,0.4c0,0,0,0.1,0.1,0.1s0.1,0,0.1,0c0.1,0,0.2,0,0.3-0.1l0.1,0.6
				c-0.2,0.1-0.4,0.1-0.7,0.1c-0.1,0-0.3,0-0.4-0.1c-0.1-0.1-0.2-0.1-0.3-0.2c-0.1-0.1-0.1-0.2-0.1-0.3c0-0.1,0-0.3,0-0.6v-1.4h-0.4
				v-0.7h0.4v-0.6l0.8-0.5v1.1H128.4z"/>
			<path class="st15" d="M128.7,101.4c0-0.3,0.1-0.5,0.2-0.8s0.3-0.5,0.6-0.6s0.5-0.2,0.8-0.2c0.5,0,0.9,0.2,1.2,0.5
				s0.5,0.7,0.5,1.2c0,0.5-0.2,0.9-0.5,1.2c-0.3,0.3-0.7,0.5-1.1,0.5c-0.3,0-0.6-0.1-0.8-0.2s-0.5-0.3-0.6-0.6
				C128.8,102.1,128.7,101.8,128.7,101.4z M129.6,101.4c0,0.3,0.1,0.5,0.2,0.7s0.3,0.2,0.5,0.2s0.4-0.1,0.5-0.2s0.2-0.4,0.2-0.7
				c0-0.3-0.1-0.5-0.2-0.7s-0.3-0.2-0.5-0.2s-0.4,0.1-0.5,0.2S129.6,101.1,129.6,101.4z"/>
			<path class="st15" d="M133.4,103h-0.8v-3.1h0.8v0.4c0.1-0.2,0.2-0.3,0.4-0.4s0.2-0.1,0.4-0.1c0.2,0,0.4,0.1,0.5,0.2l-0.3,0.7
				c-0.1-0.1-0.3-0.1-0.4-0.1c-0.1,0-0.2,0-0.3,0.1s-0.1,0.2-0.2,0.3s-0.1,0.5-0.1,1V103z"/>
			<path class="st15" d="M134.5,99.9h0.9l0.7,2.2l0.7-2.2h0.9l-1.1,3l-0.2,0.5c-0.1,0.2-0.1,0.3-0.2,0.4s-0.1,0.2-0.2,0.2
				c-0.1,0.1-0.2,0.1-0.3,0.1s-0.3,0-0.4,0c-0.2,0-0.3,0-0.5,0l-0.1-0.6c0.1,0,0.2,0,0.3,0c0.2,0,0.3-0.1,0.4-0.2s0.2-0.3,0.2-0.4
				L134.5,99.9z"/>
			<path class="st15" d="M139.9,103v-4.3h1.3l0.8,2.9l0.8-2.9h1.3v4.3h-0.8v-3.4l-0.9,3.4h-0.8l-0.8-3.4v3.4H139.9z"/>
			<path class="st15" d="M145.5,100.8l-0.7-0.1c0.1-0.3,0.2-0.5,0.4-0.7s0.5-0.2,0.9-0.2c0.4,0,0.6,0,0.8,0.1s0.3,0.2,0.4,0.3
				c0.1,0.1,0.1,0.4,0.1,0.7l0,1c0,0.3,0,0.5,0,0.6c0,0.1,0.1,0.3,0.1,0.4h-0.8c0-0.1,0-0.1-0.1-0.2c0,0,0-0.1,0-0.1
				c-0.1,0.1-0.3,0.2-0.5,0.3s-0.3,0.1-0.5,0.1c-0.3,0-0.6-0.1-0.8-0.3s-0.3-0.4-0.3-0.7c0-0.2,0-0.3,0.1-0.5
				c0.1-0.1,0.2-0.2,0.4-0.3c0.2-0.1,0.4-0.1,0.7-0.2c0.4-0.1,0.7-0.1,0.8-0.2v-0.1c0-0.2,0-0.3-0.1-0.3c-0.1-0.1-0.2-0.1-0.4-0.1
				c-0.1,0-0.3,0-0.3,0.1S145.6,100.7,145.5,100.8z M146.7,101.5c-0.1,0-0.3,0.1-0.5,0.1s-0.4,0.1-0.4,0.1c-0.1,0.1-0.2,0.2-0.2,0.3
				c0,0.1,0,0.2,0.1,0.3s0.2,0.1,0.3,0.1c0.1,0,0.3,0,0.4-0.1c0.1-0.1,0.2-0.2,0.2-0.3c0-0.1,0-0.2,0-0.4V101.5z"/>
			<path class="st15" d="M151.1,103h-0.8v-1.6c0-0.3,0-0.6-0.1-0.7c0-0.1-0.1-0.2-0.2-0.2s-0.2-0.1-0.3-0.1c-0.1,0-0.3,0-0.4,0.1
				s-0.2,0.2-0.2,0.3s-0.1,0.4-0.1,0.7v1.4h-0.8v-3.1h0.8v0.5c0.3-0.4,0.6-0.5,1-0.5c0.2,0,0.3,0,0.5,0.1c0.2,0.1,0.3,0.1,0.3,0.3
				s0.1,0.2,0.2,0.3s0,0.3,0,0.6V103z"/>
			<path class="st15" d="M152.6,100.8l-0.7-0.1c0.1-0.3,0.2-0.5,0.4-0.7s0.5-0.2,0.9-0.2c0.4,0,0.6,0,0.8,0.1s0.3,0.2,0.4,0.3
				c0.1,0.1,0.1,0.4,0.1,0.7l0,1c0,0.3,0,0.5,0,0.6c0,0.1,0.1,0.3,0.1,0.4h-0.8c0-0.1,0-0.1-0.1-0.2c0,0,0-0.1,0-0.1
				c-0.1,0.1-0.3,0.2-0.5,0.3s-0.3,0.1-0.5,0.1c-0.3,0-0.6-0.1-0.8-0.3s-0.3-0.4-0.3-0.7c0-0.2,0-0.3,0.1-0.5
				c0.1-0.1,0.2-0.2,0.4-0.3c0.2-0.1,0.4-0.1,0.7-0.2c0.4-0.1,0.7-0.1,0.8-0.2v-0.1c0-0.2,0-0.3-0.1-0.3c-0.1-0.1-0.2-0.1-0.4-0.1
				c-0.1,0-0.3,0-0.3,0.1S152.6,100.7,152.6,100.8z M153.7,101.5c-0.1,0-0.3,0.1-0.5,0.1s-0.4,0.1-0.4,0.1c-0.1,0.1-0.2,0.2-0.2,0.3
				c0,0.1,0,0.2,0.1,0.3s0.2,0.1,0.3,0.1c0.1,0,0.3,0,0.4-0.1c0.1-0.1,0.2-0.2,0.2-0.3c0-0.1,0-0.2,0-0.4V101.5z"/>
			<path class="st15" d="M155.2,103.2l0.9,0.1c0,0.1,0.1,0.2,0.1,0.2c0.1,0.1,0.2,0.1,0.4,0.1c0.2,0,0.4,0,0.5-0.1
				c0.1,0,0.1-0.1,0.2-0.2c0-0.1,0-0.2,0-0.4v-0.5c-0.2,0.3-0.6,0.5-0.9,0.5c-0.4,0-0.7-0.2-1-0.5c-0.2-0.3-0.3-0.6-0.3-1
				c0-0.5,0.1-0.9,0.4-1.2s0.6-0.4,0.9-0.4c0.4,0,0.7,0.2,1,0.5v-0.4h0.8v2.8c0,0.4,0,0.6-0.1,0.8s-0.1,0.3-0.3,0.4
				s-0.3,0.2-0.4,0.2s-0.4,0.1-0.7,0.1c-0.5,0-0.9-0.1-1.1-0.3C155.3,103.8,155.2,103.6,155.2,103.2
				C155.2,103.3,155.2,103.2,155.2,103.2z M155.9,101.4c0,0.3,0.1,0.6,0.2,0.7s0.3,0.2,0.5,0.2c0.2,0,0.4-0.1,0.5-0.2
				s0.2-0.4,0.2-0.7c0-0.3-0.1-0.6-0.2-0.7s-0.3-0.2-0.5-0.2c-0.2,0-0.4,0.1-0.5,0.2C156,100.8,155.9,101.1,155.9,101.4z"/>
			<path class="st15" d="M160.7,102l0.8,0.1c-0.1,0.3-0.3,0.5-0.5,0.7c-0.2,0.2-0.5,0.2-0.9,0.2c-0.5,0-0.9-0.2-1.2-0.5
				c-0.2-0.3-0.3-0.6-0.3-1.1c0-0.5,0.1-0.9,0.4-1.2c0.3-0.3,0.6-0.4,1-0.4c0.5,0,0.8,0.2,1.1,0.5s0.4,0.8,0.4,1.4h-2.1
				c0,0.2,0.1,0.4,0.2,0.6s0.3,0.2,0.5,0.2c0.1,0,0.2,0,0.3-0.1S160.7,102.2,160.7,102z M160.8,101.2c0-0.2-0.1-0.4-0.2-0.5
				s-0.3-0.2-0.4-0.2c-0.2,0-0.3,0.1-0.4,0.2s-0.2,0.3-0.2,0.5H160.8z"/>
			<path class="st15" d="M162.2,99.9h0.8v0.4c0.3-0.3,0.6-0.5,1-0.5c0.2,0,0.4,0,0.5,0.1s0.3,0.2,0.4,0.4c0.1-0.2,0.3-0.3,0.4-0.4
				s0.3-0.1,0.5-0.1c0.2,0,0.4,0,0.6,0.1c0.2,0.1,0.3,0.2,0.4,0.4c0.1,0.1,0.1,0.3,0.1,0.6v2H166v-1.8c0-0.3,0-0.5-0.1-0.6
				c-0.1-0.1-0.2-0.2-0.4-0.2c-0.1,0-0.2,0-0.3,0.1s-0.2,0.2-0.2,0.3s-0.1,0.3-0.1,0.6v1.5h-0.8v-1.7c0-0.3,0-0.5,0-0.6
				s-0.1-0.2-0.1-0.2s-0.1-0.1-0.3-0.1c-0.1,0-0.2,0-0.3,0.1s-0.2,0.2-0.2,0.3s-0.1,0.3-0.1,0.6v1.5h-0.8V99.9z"/>
			<path class="st15" d="M169.4,102l0.8,0.1c-0.1,0.3-0.3,0.5-0.5,0.7c-0.2,0.2-0.5,0.2-0.9,0.2c-0.5,0-0.9-0.2-1.2-0.5
				c-0.2-0.3-0.3-0.6-0.3-1.1c0-0.5,0.1-0.9,0.4-1.2c0.3-0.3,0.6-0.4,1-0.4c0.5,0,0.8,0.2,1.1,0.5s0.4,0.8,0.4,1.4h-2.1
				c0,0.2,0.1,0.4,0.2,0.6s0.3,0.2,0.5,0.2c0.1,0,0.2,0,0.3-0.1S169.4,102.2,169.4,102z M169.5,101.2c0-0.2-0.1-0.4-0.2-0.5
				s-0.3-0.2-0.4-0.2c-0.2,0-0.3,0.1-0.4,0.2s-0.2,0.3-0.2,0.5H169.5z"/>
			<path class="st15" d="M173.8,103H173v-1.6c0-0.3,0-0.6-0.1-0.7c0-0.1-0.1-0.2-0.2-0.2s-0.2-0.1-0.3-0.1c-0.1,0-0.3,0-0.4,0.1
				s-0.2,0.2-0.2,0.3s-0.1,0.4-0.1,0.7v1.4h-0.8v-3.1h0.8v0.5c0.3-0.4,0.6-0.5,1-0.5c0.2,0,0.3,0,0.5,0.1c0.2,0.1,0.3,0.1,0.3,0.3
				s0.1,0.2,0.2,0.3s0,0.3,0,0.6V103z"/>
			<path class="st15" d="M176,99.9v0.7h-0.6v1.3c0,0.3,0,0.4,0,0.4c0,0,0,0.1,0.1,0.1s0.1,0,0.1,0c0.1,0,0.2,0,0.3-0.1l0.1,0.6
				c-0.2,0.1-0.4,0.1-0.7,0.1c-0.1,0-0.3,0-0.4-0.1c-0.1-0.1-0.2-0.1-0.3-0.2c-0.1-0.1-0.1-0.2-0.1-0.3c0-0.1,0-0.3,0-0.6v-1.4h-0.4
				v-0.7h0.4v-0.6l0.8-0.5v1.1H176z"/>
		</g>
		<g>
			<path class="st16" d="M72.9,94c-0.2-0.1-0.4,0-0.5,0.1L71,95.2l-0.8,0.6l-1.7,1.3l4.9,2c0.2,0.1,0.4,0.3,0.4,0.6v2.8
				c0,0.3-0.1,0.6-0.4,0.7l-0.3,0.3v-3.2c0-0.3-0.2-0.5-0.4-0.6l-4.5-1.8c-0.3-0.1-0.6-0.1-0.8,0.1L66,99l4.9,2
				c0.2,0.1,0.4,0.3,0.4,0.6v5.4l1.8-1.4l0.7-0.5l1.6-1.2c0.1-0.1,0.2-0.3,0.2-0.5v-5.1c0-0.3-0.2-0.5-0.4-0.6l-3.2-1.3l0.4-0.3
				c0.2-0.2,0.5-0.2,0.8-0.1l2.7,1.1c0.2,0.1,0.4,0.3,0.4,0.6v5.4l1.4-1.1c0.2-0.2,0.4-0.5,0.4-0.8v-4.9c0-0.3-0.2-0.5-0.4-0.6
				L72.9,94L72.9,94z"/>
			<path class="st16" d="M68.8,103C68.8,103,68.8,103,68.8,103l-1.7-0.7c-0.1,0-0.1-0.1-0.1-0.2c0-0.1,0.1-0.1,0.2-0.1c0,0,0,0,0,0
				l1.7,0.7c0.1,0,0.1,0.1,0.1,0.2C69,103,68.9,103,68.8,103 M68.8,104C68.8,104,68.8,104,68.8,104l-1.7-0.7c-0.1,0-0.1-0.1-0.1-0.2
				c0,0,0,0,0,0c0-0.1,0.1-0.1,0.2-0.1l1.7,0.7c0.1,0,0.1,0.1,0.1,0.2C69,104,68.9,104,68.8,104 M67.8,105
				C67.8,105,67.8,105,67.8,105l-0.7-0.4c-0.1-0.1-0.1-0.2-0.1-0.4c0-0.2,0.1-0.2,0.2-0.2l0.6,0.4c0.1,0.1,0.1,0.2,0.1,0.4
				C68,104.9,67.9,105,67.8,105"/>
		</g>
		<g transform="translate(131 120)">
			<g class="st17">
				<path id="b_2_" class="st18" d="M0,155h277V7H0V155z"/>
			</g>
			<g>
				<path id="b_1_" class="st16" d="M0,155h277V7H0V155z"/>
			</g>
		</g>
		<path class="st19" d="M408,128v147H229l-98,0"/>
		<path class="st20" d="M144,140h100v100H144V140z"/>
		<path class="st21" d="M144,249h15v15h-15V249z"/>
		<path class="st20" d="M165.3,249h15v15h-15V249z M186.5,249h15v15h-15V249z M207.8,249h15v15h-15V249z M229,249h15v15h-15V249z"/>
		<path class="st1" d="M254,175h62v15h-62V175z M320,175h22v15h-22V175z"/>
		<path class="st20" d="M254,140h143v9H254V140z M254,153h143v9H254V153z M254,210h13v-5h-13V210z M254,240h13v-5h-13V240z M282,215
			h26v-10h-26V215z M282,245h26v-10h-26V245z M282,228h26v-10h-26V228z M282,258h26v-10h-26V258z M312,215h26v-10h-26V215z M312,245
			h26v-10h-26V245z M342,215h26v-10h-26V215z M342,245h26v-10h-26V245z M372,215h26v-10h-26V215z M372,245h26v-10h-26V245z"/>
		<path class="st12" d="M255,168h142 M255,197h142"/>
		<path class="st22" d="M164.1,185.2l2,1.9c2.4,2.3,6.5,1.9,8.4-0.8l1.6-2.3v25.1c0,2.9,2.4,5.2,5.4,5.2h26.1c3,0,5.4-2.3,5.4-5.2
			v-25.1l1.9,1.9c1.9,1.8,5,2,7.1,0.5l2.2-1.6c2.5-1.8,2.9-5.2,0.9-7.5l-7.9-9.1c-1-1.2-2.6-1.9-4.2-1.9h-5.8
			c-1.4,0-2.8,0.5-3.8,1.5l-0.5,0.5c-4.2,3.9-10.8,3.7-14.8-0.3c-1-1.1-2.5-1.6-4-1.6h-6c-1.4,0-2.8,0.6-3.9,1.5l-10.4,9.9
			C162,179.9,162,183.2,164.1,185.2"/>
		<path class="st16" d="M570.4,125.8l0.6,0.5c0.7,0.7,1.8,0.5,2.4-0.2l0.5-0.6v7.1c0,0.8,0.7,1.5,1.5,1.5h7.3c0.8,0,1.5-0.7,1.5-1.5
			v-7.1l0.5,0.5c0.5,0.5,1.4,0.6,2,0.1l0.6-0.4c0.7-0.5,0.8-1.5,0.3-2.1l-2.2-2.6c-0.3-0.3-0.7-0.5-1.2-0.5h-1.6
			c-0.4,0-0.8,0.2-1.1,0.4l-0.1,0.1c-1.2,1.1-3,1.1-4.2-0.1c-0.3-0.3-0.7-0.5-1.1-0.5h-1.7c-0.4,0-0.8,0.2-1.1,0.4l-2.9,2.8
			C569.9,124.3,569.8,125.2,570.4,125.8C570.4,125.8,570.4,125.8,570.4,125.8"/>
		<g class="st10">
			<path class="st13" d="M327.9,125v-0.8h0.8v0.8H327.9z M330.6,125v-0.8h0.8v0.8H330.6z M333.3,125v-0.8h0.8v0.8H333.3z"/>
		</g>
	</g>
	<g>
		<path class="st1" d="M440,113h52c5.5,0,10,4.5,10,10v9c0,5.5-4.5,10-10,10h-42c-5.5,0-10-4.5-10-10V113z"/>
		<path class="st15" d="M486,131c-0.6,0-1,0.5-1,1s0.5,1,1,1s1-0.5,1-1S486.5,131,486,131z M483,123v1.1h1l1.8,4l-0.7,1.3
			c-0.1,0.1-0.1,0.3-0.1,0.5c0,0.6,0.5,1.1,1,1.1h6v-1.1h-5.8c-0.1,0-0.1-0.1-0.1-0.1l0-0.1l0.5-0.9h3.7c0.4,0,0.7-0.2,0.9-0.5
			l1.8-3.5c0-0.1,0.1-0.2,0.1-0.3c0-0.3-0.2-0.5-0.5-0.5h-7.4l-0.5-1.1L483,123L483,123z M491,131c-0.6,0-1,0.5-1,1s0.5,1,1,1
			s1-0.5,1-1S491.5,131,491,131z"/>
		<path class="st16" d="M447.3,126.6l0.4,0.4c0.5,0.4,1.2,0.4,1.6-0.2l0.3-0.4v4.8c0,0.6,0.5,1,1,1h5c0.6,0,1-0.4,1-1v-4.8l0.4,0.4
			c0.4,0.4,1,0.4,1.4,0.1l0.4-0.3c0.4-0.3,0.6-0.9,0.2-1.4c0,0,0-0.1-0.1-0.1l-1.5-1.7c-0.2-0.2-0.5-0.4-0.8-0.4h-1.1
			c-0.3,0-0.5,0.1-0.7,0.3l-0.1,0.1c-0.8,0.7-2.1,0.7-2.9-0.1c-0.2-0.2-0.5-0.3-0.8-0.3h-1.1c-0.3,0-0.5,0.1-0.7,0.3l-2,1.9
			C446.9,125.6,446.9,126.2,447.3,126.6C447.3,126.6,447.3,126.6,447.3,126.6"/>
		<g class="st10">
			<path class="st15" d="M463.5,129.3l0.8-0.1c0.1,0.4,0.2,0.7,0.4,0.9s0.5,0.3,0.8,0.3c0.3,0,0.5-0.1,0.7-0.2
				c0.2-0.1,0.4-0.3,0.5-0.5c0.1-0.2,0.2-0.5,0.3-0.8s0.1-0.7,0.1-1.1c0,0,0-0.1,0-0.2c-0.2,0.3-0.4,0.5-0.7,0.7
				c-0.3,0.2-0.6,0.3-1,0.3c-0.6,0-1.1-0.2-1.5-0.6s-0.6-1-0.6-1.7c0-0.7,0.2-1.3,0.6-1.8c0.4-0.4,1-0.7,1.6-0.7
				c0.5,0,0.9,0.1,1.3,0.4c0.4,0.3,0.7,0.6,0.9,1.1c0.2,0.5,0.3,1.1,0.3,2c0,0.9-0.1,1.6-0.3,2.2c-0.2,0.5-0.5,1-0.9,1.2
				c-0.4,0.3-0.9,0.4-1.4,0.4c-0.6,0-1-0.2-1.4-0.5C463.8,130.3,463.6,129.9,463.5,129.3z M467.1,126.2c0-0.5-0.1-0.9-0.4-1.2
				c-0.3-0.3-0.6-0.4-1-0.4c-0.4,0-0.7,0.2-1,0.5s-0.4,0.7-0.4,1.2c0,0.5,0.1,0.8,0.4,1.1c0.3,0.3,0.6,0.4,1,0.4
				c0.4,0,0.7-0.1,1-0.4C467,127.1,467.1,126.7,467.1,126.2z"/>
			<path class="st15" d="M472.3,131h-0.9v-5.6c-0.2,0.2-0.5,0.4-0.8,0.6c-0.3,0.2-0.7,0.4-0.9,0.5v-0.8c0.5-0.2,0.9-0.5,1.3-0.8
				s0.6-0.6,0.8-1h0.6V131z"/>
		</g>
		<path class="st23" d="M476,128h4"/>
		<g>
			<path class="st22" d="M440,164h52c5.5,0,10,4.5,10,10v9c0,5.5-4.5,10-10,10h-42c-5.5,0-10-4.5-10-10V164z"/>
			<path class="st15" d="M486,182c-0.6,0-1,0.5-1,1s0.5,1,1,1s1-0.5,1-1S486.5,182,486,182z M483,174v1.1h1l1.8,4l-0.7,1.3
				c-0.1,0.1-0.1,0.3-0.1,0.5c0,0.6,0.5,1.1,1,1.1h6v-1.1h-5.8c-0.1,0-0.1-0.1-0.1-0.1l0-0.1l0.5-0.9h3.7c0.4,0,0.7-0.2,0.9-0.5
				l1.8-3.5c0-0.1,0.1-0.2,0.1-0.3c0-0.3-0.2-0.5-0.5-0.5h-7.4l-0.5-1.1L483,174L483,174z M491,182c-0.6,0-1,0.5-1,1s0.5,1,1,1
				s1-0.5,1-1S491.5,182,491,182z"/>
			<path class="st16" d="M447.3,177.6l0.4,0.4c0.5,0.4,1.2,0.4,1.6-0.2l0.3-0.4v4.8c0,0.6,0.5,1,1,1h5c0.6,0,1-0.4,1-1v-4.8l0.4,0.4
				c0.4,0.4,1,0.4,1.4,0.1l0.4-0.3c0.4-0.3,0.6-0.9,0.2-1.4c0,0,0-0.1-0.1-0.1l-1.5-1.7c-0.2-0.2-0.5-0.4-0.8-0.4h-1.1
				c-0.3,0-0.5,0.1-0.7,0.3l-0.1,0.1c-0.8,0.7-2.1,0.7-2.9-0.1c-0.2-0.2-0.5-0.3-0.8-0.3h-1.1c-0.3,0-0.5,0.1-0.7,0.3l-2,1.9
				C446.9,176.6,446.9,177.2,447.3,177.6C447.3,177.6,447.3,177.6,447.3,177.6"/>
			<g class="st10">
				<path class="st15" d="M463.5,180.3l0.8-0.1c0.1,0.4,0.2,0.7,0.4,0.9s0.5,0.3,0.8,0.3c0.3,0,0.5-0.1,0.7-0.2
					c0.2-0.1,0.4-0.3,0.5-0.5c0.1-0.2,0.2-0.5,0.3-0.8s0.1-0.7,0.1-1.1c0,0,0-0.1,0-0.2c-0.2,0.3-0.4,0.5-0.7,0.7
					c-0.3,0.2-0.6,0.3-1,0.3c-0.6,0-1.1-0.2-1.5-0.6s-0.6-1-0.6-1.7c0-0.7,0.2-1.3,0.6-1.8c0.4-0.4,1-0.7,1.6-0.7
					c0.5,0,0.9,0.1,1.3,0.4c0.4,0.3,0.7,0.6,0.9,1.1c0.2,0.5,0.3,1.1,0.3,2c0,0.9-0.1,1.6-0.3,2.2c-0.2,0.5-0.5,1-0.9,1.2
					c-0.4,0.3-0.9,0.4-1.4,0.4c-0.6,0-1-0.2-1.4-0.5C463.8,181.3,463.6,180.9,463.5,180.3z M467.1,177.2c0-0.5-0.1-0.9-0.4-1.2
					c-0.3-0.3-0.6-0.4-1-0.4c-0.4,0-0.7,0.2-1,0.5s-0.4,0.7-0.4,1.2c0,0.5,0.1,0.8,0.4,1.1c0.3,0.3,0.6,0.4,1,0.4
					c0.4,0,0.7-0.1,1-0.4C467,178.1,467.1,177.7,467.1,177.2z"/>
				<path class="st15" d="M472.3,182h-0.9v-5.6c-0.2,0.2-0.5,0.4-0.8,0.6c-0.3,0.2-0.7,0.4-0.9,0.5v-0.8c0.5-0.2,0.9-0.5,1.3-0.8
					s0.6-0.6,0.8-1h0.6V182z"/>
			</g>
			<path class="st23" d="M476,179h4"/>
		</g>
		<g>
			<path class="st1" d="M440,217h52c5.5,0,10,4.5,10,10v9c0,5.5-4.5,10-10,10h-42c-5.5,0-10-4.5-10-10V217z"/>
			<path class="st15" d="M486,235c-0.6,0-1,0.5-1,1s0.5,1,1,1s1-0.5,1-1S486.5,235,486,235z M483,227v1.1h1l1.8,4l-0.7,1.3
				c-0.1,0.1-0.1,0.3-0.1,0.5c0,0.6,0.5,1.1,1,1.1h6v-1.1h-5.8c-0.1,0-0.1-0.1-0.1-0.1l0-0.1l0.5-0.9h3.7c0.4,0,0.7-0.2,0.9-0.5
				l1.8-3.5c0-0.1,0.1-0.2,0.1-0.3c0-0.3-0.2-0.5-0.5-0.5h-7.4l-0.5-1.1L483,227L483,227z M491,235c-0.6,0-1,0.5-1,1s0.5,1,1,1
				s1-0.5,1-1S491.5,235,491,235z"/>
			<path class="st16" d="M447.3,230.6l0.4,0.4c0.5,0.4,1.2,0.4,1.6-0.2l0.3-0.4v4.8c0,0.6,0.5,1,1,1h5c0.6,0,1-0.4,1-1v-4.8l0.4,0.4
				c0.4,0.4,1,0.4,1.4,0.1l0.4-0.3c0.4-0.3,0.6-0.9,0.2-1.4c0,0,0-0.1-0.1-0.1l-1.5-1.7c-0.2-0.2-0.5-0.4-0.8-0.4h-1.1
				c-0.3,0-0.5,0.1-0.7,0.3l-0.1,0.1c-0.8,0.7-2.1,0.7-2.9-0.1c-0.2-0.2-0.5-0.3-0.8-0.3h-1.1c-0.3,0-0.5,0.1-0.7,0.3l-2,1.9
				C446.9,229.6,446.9,230.2,447.3,230.6C447.3,230.6,447.3,230.6,447.3,230.6"/>
			<g class="st10">
				<path class="st15" d="M463.5,233.3l0.8-0.1c0.1,0.4,0.2,0.7,0.4,0.9s0.5,0.3,0.8,0.3c0.3,0,0.5-0.1,0.7-0.2
					c0.2-0.1,0.4-0.3,0.5-0.5c0.1-0.2,0.2-0.5,0.3-0.8s0.1-0.7,0.1-1.1c0,0,0-0.1,0-0.2c-0.2,0.3-0.4,0.5-0.7,0.7
					c-0.3,0.2-0.6,0.3-1,0.3c-0.6,0-1.1-0.2-1.5-0.6s-0.6-1-0.6-1.7c0-0.7,0.2-1.3,0.6-1.8c0.4-0.4,1-0.7,1.6-0.7
					c0.5,0,0.9,0.1,1.3,0.4c0.4,0.3,0.7,0.6,0.9,1.1c0.2,0.5,0.3,1.1,0.3,2c0,0.9-0.1,1.6-0.3,2.2c-0.2,0.5-0.5,1-0.9,1.2
					c-0.4,0.3-0.9,0.4-1.4,0.4c-0.6,0-1-0.2-1.4-0.5C463.8,234.3,463.6,233.9,463.5,233.3z M467.1,230.2c0-0.5-0.1-0.9-0.4-1.2
					c-0.3-0.3-0.6-0.4-1-0.4c-0.4,0-0.7,0.2-1,0.5s-0.4,0.7-0.4,1.2c0,0.5,0.1,0.8,0.4,1.1c0.3,0.3,0.6,0.4,1,0.4
					c0.4,0,0.7-0.1,1-0.4C467,231.1,467.1,230.7,467.1,230.2z"/>
				<path class="st15" d="M472.3,235h-0.9v-5.6c-0.2,0.2-0.5,0.4-0.8,0.6c-0.3,0.2-0.7,0.4-0.9,0.5v-0.8c0.5-0.2,0.9-0.5,1.3-0.8
					s0.6-0.6,0.8-1h0.6V235z"/>
			</g>
			<path class="st23" d="M476,232h4"/>
		</g>
		<g>
			<path class="st1" d="M440,271h52c5.5,0,10,4.5,10,10v9c0,5.5-4.5,10-10,10h-42c-5.5,0-10-4.5-10-10V271z"/>
			<path class="st15" d="M486,289c-0.6,0-1,0.5-1,1s0.5,1,1,1s1-0.5,1-1S486.5,289,486,289z M483,281v1.1h1l1.8,4l-0.7,1.3
				c-0.1,0.1-0.1,0.3-0.1,0.5c0,0.6,0.5,1.1,1,1.1h6v-1.1h-5.8c-0.1,0-0.1-0.1-0.1-0.1l0-0.1l0.5-0.9h3.7c0.4,0,0.7-0.2,0.9-0.5
				l1.8-3.5c0-0.1,0.1-0.2,0.1-0.3c0-0.3-0.2-0.5-0.5-0.5h-7.4l-0.5-1.1H483z M491,289c-0.6,0-1,0.5-1,1s0.5,1,1,1s1-0.5,1-1
				S491.5,289,491,289z"/>
			<path class="st16" d="M447.3,284.6l0.4,0.4c0.5,0.4,1.2,0.4,1.6-0.2l0.3-0.4v4.8c0,0.6,0.5,1,1,1h5c0.6,0,1-0.5,1-1v-4.8l0.4,0.4
				c0.4,0.4,1,0.4,1.4,0.1l0.4-0.3c0.4-0.3,0.6-0.9,0.2-1.4c0,0,0-0.1-0.1-0.1l-1.5-1.7c-0.2-0.2-0.5-0.4-0.8-0.4h-1.1
				c-0.3,0-0.5,0.1-0.7,0.3l-0.1,0.1c-0.8,0.7-2.1,0.7-2.9-0.1c-0.2-0.2-0.5-0.3-0.8-0.3h-1.1c-0.3,0-0.5,0.1-0.7,0.3l-2,1.9
				C446.9,283.6,446.9,284.2,447.3,284.6C447.3,284.6,447.3,284.6,447.3,284.6"/>
			<g class="st10">
				<path class="st15" d="M463.5,287.3l0.8-0.1c0.1,0.4,0.2,0.7,0.4,0.9s0.5,0.3,0.8,0.3c0.3,0,0.5-0.1,0.7-0.2
					c0.2-0.1,0.4-0.3,0.5-0.5c0.1-0.2,0.2-0.5,0.3-0.8s0.1-0.7,0.1-1.1c0,0,0-0.1,0-0.2c-0.2,0.3-0.4,0.5-0.7,0.7
					c-0.3,0.2-0.6,0.3-1,0.3c-0.6,0-1.1-0.2-1.5-0.6s-0.6-1-0.6-1.7c0-0.7,0.2-1.3,0.6-1.8c0.4-0.4,1-0.7,1.6-0.7
					c0.5,0,0.9,0.1,1.3,0.4c0.4,0.3,0.7,0.6,0.9,1.1c0.2,0.5,0.3,1.1,0.3,2c0,0.9-0.1,1.6-0.3,2.2c-0.2,0.5-0.5,1-0.9,1.2
					c-0.4,0.3-0.9,0.4-1.4,0.4c-0.6,0-1-0.2-1.4-0.5C463.8,288.3,463.6,287.9,463.5,287.3z M467.1,284.2c0-0.5-0.1-0.9-0.4-1.2
					c-0.3-0.3-0.6-0.4-1-0.4c-0.4,0-0.7,0.2-1,0.5s-0.4,0.7-0.4,1.2c0,0.5,0.1,0.8,0.4,1.1c0.3,0.3,0.6,0.4,1,0.4
					c0.4,0,0.7-0.1,1-0.4C467,285.1,467.1,284.7,467.1,284.2z"/>
				<path class="st15" d="M472.3,289h-0.9v-5.6c-0.2,0.2-0.5,0.4-0.8,0.6c-0.3,0.2-0.7,0.4-0.9,0.5v-0.8c0.5-0.2,0.9-0.5,1.3-0.8
					s0.6-0.6,0.8-1h0.6V289z"/>
			</g>
			<path class="st23" d="M476,286h4"/>
		</g>
	</g>
	<g class="st24">
		<path class="st21" d="M557,342h5v-31h-5V342z"/>
		<path class="st25" d="M562,311h100v31H562V311z"/>
	</g>
	<g class="st26">
		<path class="st21" d="M546,328h5v-31h-5V328z"/>
		<path class="st25" d="M551,297h100v31H551V297z"/>
	</g>
	<g class="st24">
		<path class="st21" d="M551.5,108h4.6V77h-4.6V108z"/>
		<path class="st25" d="M555.8,77h91.7v31h-91.7V77z"/>
	</g>
	<g class="st26">
		<path class="st21" d="M540.5,125h4.6V94h-4.6V125z"/>
		<path class="st25" d="M544.8,94h91.7v31h-91.7V94z"/>
	</g>
	<path class="st25" d="M536,144h100v-31H536V144z M536,196h100v-31H536V196z M536,301h100v-31H536V301z M536,251h100v-31H536V251z"
		/>
	<g transform="translate(0 36)">
		<path class="st27" d="M532,160h4v-31h-4V160z"/>
		<path class="st21" d="M532,265h4v-31h-4V265z M532,108h4V77h-4V108z"/>
	</g>
	<path class="st21" d="M532,251h4v-31h-4V251z"/>
</g>
<g id="Layer_2">
	<g>
		<path d="M544.2,133.2c-1,0-1.8-0.3-2.4-0.8s-0.9-1.2-0.9-2.1h1.8c0,0.2,0,0.4,0.1,0.5c0.1,0.2,0.2,0.3,0.3,0.4s0.3,0.2,0.5,0.2
			c0.2,0,0.3,0.1,0.5,0.1c0.4,0,0.7-0.1,1-0.3c0.3-0.2,0.4-0.4,0.4-0.7c0-0.1,0-0.2-0.1-0.3c-0.1-0.1-0.1-0.2-0.2-0.2
			s-0.2-0.1-0.4-0.2s-0.3-0.1-0.4-0.1c-0.1,0-0.3-0.1-0.5-0.1c-0.2,0-0.3-0.1-0.4-0.1c-0.1,0-0.2-0.1-0.4-0.1
			c-0.2-0.1-0.3-0.1-0.4-0.2c-0.1,0-0.2-0.1-0.4-0.2c-0.2-0.1-0.3-0.2-0.4-0.2c-0.1-0.1-0.2-0.2-0.3-0.3c-0.1-0.1-0.2-0.2-0.2-0.4
			c-0.1-0.1-0.1-0.3-0.1-0.5c0-0.2-0.1-0.4-0.1-0.5c0-0.8,0.3-1.4,0.8-1.9s1.3-0.7,2.2-0.7c1,0,1.7,0.2,2.2,0.7s0.8,1.1,0.8,2h-1.8
			c0-0.3-0.1-0.6-0.4-0.8c-0.2-0.2-0.5-0.3-0.9-0.3c-0.3,0-0.6,0.1-0.8,0.2c-0.2,0.1-0.4,0.3-0.4,0.6c0,0.1,0,0.2,0.1,0.3
			c0.1,0.1,0.1,0.2,0.2,0.2c0.1,0.1,0.2,0.1,0.4,0.2s0.3,0.1,0.4,0.1c0.1,0,0.3,0.1,0.5,0.1c0.3,0.1,0.4,0.1,0.6,0.2
			c0.1,0,0.3,0.1,0.6,0.2s0.4,0.2,0.6,0.2c0.1,0.1,0.3,0.2,0.5,0.3c0.2,0.1,0.3,0.3,0.4,0.4c0.1,0.2,0.2,0.3,0.2,0.6
			c0.1,0.2,0.1,0.5,0.1,0.7c0,0.6-0.1,1.1-0.4,1.5c-0.3,0.4-0.7,0.7-1.1,0.9C545.4,133.1,544.8,133.2,544.2,133.2z"/>
		<path d="M554.5,124.6v1.7h-2.3v6.7h-1.8v-6.7H548v-1.7H554.5z"/>
		<path d="M559.5,133.2c-1.3,0-2.3-0.4-3.2-1.3c-0.9-0.8-1.3-1.9-1.3-3.1s0.4-2.3,1.3-3.1c0.9-0.8,1.9-1.3,3.2-1.3
			c0.8,0,1.6,0.2,2.3,0.6c0.7,0.4,1.2,0.9,1.6,1.6s0.6,1.4,0.6,2.2c0,1.3-0.4,2.3-1.3,3.1S560.7,133.2,559.5,133.2z M559.5,131.5
			c0.5,0,0.9-0.1,1.3-0.3c0.4-0.2,0.7-0.5,0.9-1c0.2-0.4,0.3-0.9,0.3-1.4c0-0.8-0.3-1.4-0.8-1.9c-0.5-0.5-1.1-0.8-1.9-0.8
			s-1.4,0.3-1.9,0.8c-0.5,0.5-0.8,1.1-0.8,1.9c0,0.8,0.3,1.4,0.8,1.9C558.1,131.2,558.7,131.5,559.5,131.5z"/>
		<path d="M569.2,133.2c-0.8,0-1.5-0.2-2.2-0.6c-0.7-0.4-1.2-0.9-1.6-1.6s-0.6-1.4-0.6-2.2c0-1.2,0.4-2.3,1.2-3.1
			c0.8-0.8,1.9-1.3,3.1-1.3c1,0,1.9,0.3,2.7,0.9c0.7,0.6,1.2,1.4,1.4,2.4h-1.8c-0.1-0.3-0.3-0.6-0.5-0.9c-0.2-0.2-0.5-0.4-0.8-0.6
			c-0.3-0.1-0.6-0.2-1-0.2c-0.7,0-1.3,0.3-1.8,0.8c-0.5,0.5-0.7,1.1-0.7,1.9c0,0.8,0.2,1.4,0.7,1.9c0.5,0.5,1.1,0.8,1.8,0.8
			c0.6,0,1-0.2,1.4-0.5c0.4-0.3,0.7-0.7,0.8-1.3h1.8c-0.2,1-0.7,1.9-1.4,2.5C571.1,132.9,570.2,133.2,569.2,133.2z"/>
		<path d="M581.6,133h-2.2l-3-4.1v4.1h-1.8v-8.4h1.8v3.9l2.7-3.9h2.1l-2.9,4L581.6,133z"/>
	</g>
	<g>
		<path d="M541.5,184v-8.4h1.8v8.4H541.5z"/>
		<path d="M550.5,175.6h1.8v8.4h-1.5l-3.8-5.2v5.2h-1.8v-8.4h1.6l3.7,5.1V175.6z"/>
		<path d="M559.6,175.6h2l-3.2,8.4h-1.7l-3.3-8.4h2l2.1,5.9L559.6,175.6z"/>
		<path d="M564.5,182.3h3.3v1.7h-5.2v-8.4h5v1.7h-3.2v1.7h2.9v1.6h-2.9V182.3z"/>
		<path d="M574.7,175.6h1.8v8.4H575l-3.8-5.2v5.2h-1.8v-8.4h1.6l3.7,5.1V175.6z"/>
		<path d="M584.2,175.6v1.7h-2.3v6.7H580v-6.7h-2.3v-1.7H584.2z"/>
		<path d="M589.1,184.2c-1.3,0-2.3-0.4-3.2-1.3c-0.9-0.8-1.3-1.9-1.3-3.1s0.4-2.3,1.3-3.1c0.9-0.8,1.9-1.3,3.2-1.3
			c0.8,0,1.6,0.2,2.3,0.6c0.7,0.4,1.2,0.9,1.6,1.6s0.6,1.4,0.6,2.2c0,1.3-0.4,2.3-1.3,3.1S590.4,184.2,589.1,184.2z M589.1,182.5
			c0.5,0,0.9-0.1,1.3-0.3c0.4-0.2,0.7-0.5,0.9-1c0.2-0.4,0.3-0.9,0.3-1.4c0-0.8-0.3-1.4-0.8-1.9s-1.1-0.8-1.9-0.8s-1.4,0.3-1.9,0.8
			c-0.5,0.5-0.8,1.1-0.8,1.9c0,0.8,0.3,1.4,0.8,1.9C587.7,182.2,588.4,182.5,589.1,182.5z"/>
		<path d="M599.6,184l-1.6-2.9h-1.2v2.9H595v-8.4h3.4c0.6,0,1.1,0.1,1.5,0.4c0.4,0.2,0.8,0.6,1,1s0.4,0.9,0.4,1.4
			c0,0.5-0.1,1-0.4,1.5c-0.3,0.4-0.6,0.8-1.1,1l1.9,3.2H599.6z M596.8,177.3v2.2h1.5c0.4,0,0.7-0.1,0.9-0.3c0.2-0.2,0.3-0.5,0.3-0.8
			c0-0.2,0-0.4-0.1-0.6c-0.1-0.2-0.2-0.3-0.4-0.4c-0.2-0.1-0.4-0.1-0.6-0.1H596.8z"/>
		<path d="M609.5,175.6l-3,5v3.4h-1.9v-3.4l-2.9-5h1.9l1.9,3.4l1.9-3.4H609.5z"/>
	</g>
	<g>
		<path d="M543.3,238.3h3.2v1.7h-5v-8.4h1.8V238.3z"/>
		<path d="M549.5,238.3h3.3v1.7h-5.2v-8.4h5v1.7h-3.2v1.7h2.9v1.6h-2.9V238.3z"/>
		<path d="M557.6,231.6c1.2,0,2.3,0.4,3.1,1.2c0.8,0.8,1.2,1.8,1.2,3s-0.4,2.2-1.2,3c-0.8,0.8-1.8,1.2-3.1,1.2h-3.2v-8.4H557.6z
			 M557.6,238.3c0.7,0,1.3-0.2,1.8-0.7c0.5-0.5,0.7-1.1,0.7-1.8c0-0.7-0.2-1.3-0.7-1.8c-0.5-0.5-1-0.7-1.8-0.7h-1.3v5H557.6z"/>
		<path d="M567,235.6h4.5c0,1.3-0.4,2.4-1.2,3.3c-0.8,0.9-1.8,1.3-3.1,1.3c-1.2,0-2.3-0.4-3.1-1.2s-1.2-1.9-1.2-3.1
			c0-1.3,0.4-2.3,1.2-3.1c0.8-0.8,1.8-1.2,3.1-1.2c1,0,2,0.3,2.7,0.9s1.3,1.4,1.5,2.3h-1.9c-0.1-0.3-0.3-0.6-0.5-0.8
			c-0.2-0.2-0.5-0.4-0.8-0.5c-0.3-0.1-0.6-0.2-1-0.2c-0.7,0-1.3,0.2-1.8,0.7s-0.7,1.1-0.7,1.9c0,0.5,0.1,1,0.3,1.4
			c0.2,0.4,0.5,0.7,0.9,0.9s0.8,0.3,1.3,0.3c0.4,0,0.7-0.1,1-0.2c0.3-0.1,0.6-0.3,0.8-0.5c0.2-0.2,0.4-0.5,0.5-0.8H567V235.6z"/>
		<path d="M574.7,238.3h3.3v1.7h-5.2v-8.4h5v1.7h-3.2v1.7h2.9v1.6h-2.9V238.3z"/>
		<path d="M584.2,240l-1.6-2.9h-1.2v2.9h-1.8v-8.4h3.4c0.6,0,1.1,0.1,1.5,0.4c0.4,0.2,0.8,0.6,1,1s0.4,0.9,0.4,1.4
			c0,0.5-0.1,1-0.4,1.5c-0.3,0.4-0.6,0.8-1.1,1l1.9,3.2H584.2z M581.4,233.3v2.2h1.5c0.4,0,0.7-0.1,0.9-0.3c0.2-0.2,0.3-0.5,0.3-0.8
			c0-0.2,0-0.4-0.1-0.6c-0.1-0.2-0.2-0.3-0.4-0.4c-0.2-0.1-0.4-0.1-0.6-0.1H581.4z"/>
	</g>
	<g>
		<path d="M547.3,280.6v1.7h-2.3v6.7h-1.8v-6.7h-2.3v-1.7H547.3z"/>
		<path d="M553.1,289l-1.6-2.9h-1.2v2.9h-1.8v-8.4h3.4c0.6,0,1.1,0.1,1.5,0.4c0.4,0.2,0.8,0.6,1,1s0.4,0.9,0.4,1.4
			c0,0.5-0.1,1-0.4,1.5c-0.3,0.4-0.6,0.8-1.1,1l1.9,3.2H553.1z M550.3,282.3v2.2h1.5c0.4,0,0.7-0.1,0.9-0.3c0.2-0.2,0.3-0.5,0.3-0.8
			c0-0.2,0-0.4-0.1-0.6c-0.1-0.2-0.2-0.3-0.4-0.4c-0.2-0.1-0.4-0.1-0.6-0.1H550.3z"/>
		<path d="M556.4,289v-8.4h1.8v8.4H556.4z"/>
		<path d="M565.7,289l-0.6-1.6h-3.3l-0.6,1.6h-1.9l3.3-8.4h1.7l3.4,8.4H565.7z M563.5,282.8l-1.1,3h2.2L563.5,282.8z"/>
		<path d="M570.6,287.3h3.2v1.7h-5v-8.4h1.8V287.3z"/>
		<path d="M582.6,284.6c0.4,0.2,0.7,0.5,0.9,0.8c0.2,0.3,0.3,0.7,0.3,1.2c0,0.7-0.3,1.2-0.8,1.7c-0.5,0.5-1.1,0.7-1.9,0.7h-3.6v-8.4
			h3.5c0.7,0,1.3,0.2,1.8,0.6c0.5,0.4,0.7,0.9,0.7,1.5c0,0.4-0.1,0.7-0.3,1S582.9,284.4,582.6,284.6z M581.8,283
			c0-0.1,0-0.3-0.1-0.4c0-0.1-0.1-0.2-0.2-0.3c-0.1-0.1-0.2-0.1-0.3-0.2c-0.1,0-0.2-0.1-0.4-0.1h-1.5v1.8h1.5c0.3,0,0.5-0.1,0.7-0.2
			S581.8,283.3,581.8,283z M580.9,287.3c0.3,0,0.5-0.1,0.7-0.3c0.2-0.2,0.3-0.4,0.3-0.7c0-0.3-0.1-0.5-0.3-0.7
			c-0.2-0.2-0.4-0.3-0.7-0.3h-1.6v1.9H580.9z"/>
		<path d="M590.6,289l-0.6-1.6h-3.3l-0.6,1.6h-1.9l3.3-8.4h1.7l3.4,8.4H590.6z M588.4,282.8l-1.1,3h2.2L588.4,282.8z"/>
		<path d="M595.5,287.3h3.2v1.7h-5v-8.4h1.8V287.3z"/>
		<path d="M605.5,289l-0.6-1.6h-3.3L601,289h-1.9l3.3-8.4h1.7l3.4,8.4H605.5z M603.2,282.8l-1.1,3h2.2L603.2,282.8z"/>
		<path d="M613.9,280.6h1.8v8.4h-1.5l-3.8-5.2v5.2h-1.8v-8.4h1.6l3.7,5.1V280.6z"/>
		<path d="M621.4,289.2c-0.8,0-1.5-0.2-2.2-0.6s-1.2-0.9-1.6-1.6s-0.6-1.4-0.6-2.2c0-1.2,0.4-2.3,1.2-3.1c0.8-0.8,1.9-1.3,3.1-1.3
			c1,0,1.9,0.3,2.7,0.9c0.7,0.6,1.2,1.4,1.4,2.4h-1.8c-0.1-0.3-0.3-0.6-0.5-0.9c-0.2-0.2-0.5-0.4-0.8-0.6c-0.3-0.1-0.6-0.2-1-0.2
			c-0.7,0-1.3,0.3-1.8,0.8c-0.5,0.5-0.7,1.1-0.7,1.9c0,0.8,0.2,1.4,0.7,1.9c0.5,0.5,1.1,0.8,1.8,0.8c0.6,0,1-0.2,1.4-0.5
			c0.4-0.3,0.7-0.7,0.8-1.3h1.8c-0.2,1-0.7,1.9-1.4,2.5C623.3,288.9,622.5,289.2,621.4,289.2z"/>
		<path d="M628.6,287.3h3.3v1.7h-5.2v-8.4h5v1.7h-3.2v1.7h2.9v1.6h-2.9V287.3z"/>
	</g>
</g>
</svg>
